{
.appVersion = "1271";
copyright = "Copyright 2018 Google LLC. All Rights Reserved.";
customParameters = (
{
name = glyphOrder;
value = (
.notdef,
NULL,
CR,
space,
nbspace,
u10A9A,
u10A9B,
u10A9C,
u10A9D,
u10A98,
u10A99,
u10A96,
u10A97,
u10A9E,
u10A9F,
u10A80,
u10A81,
u10A82,
u10A83,
u10A84,
u10A85,
u10A86,
u10A87,
u10A88,
u10A89,
u10A8A,
u10A8B,
u10A8C,
u10A8D,
u10A8E,
u10A8F,
u10A94,
u10A95,
u10A90,
u10A91,
u10A92,
u10A93
);
},
{
name = description;
value = "Designed by Monotype design team.";
},
{
name = license;
value = "This Font Software is licensed under the SIL Open Font License, Version 1.1. This Font Software is distributed on an \"AS IS\" BASIS, WITHOUT WARRANTIES OR CONDITIONS OF ANY KIND, either express or implied. See the SIL Open Font License for the specific language, permissions and limitations governing your use of this Font Software.";
},
{
name = licenseURL;
value = "http://scripts.sil.org/OFL";
},
{
name = vendorID;
value = GOOG;
},
{
name = unicodeRanges;
value = (
0,
1,
57
);
},
{
name = trademark;
value = "Noto is a trademark of Google Inc.";
},
{
name = "Has WWS Names";
value = 1;
},
{
name = versionString;
value = "Version 2.000";
},
{
name = fsType;
value = (
);
},
{
name = codePageRanges;
value = (
"1252"
);
}
);
date = "2018-02-12 23:22:07 +0000";
designer = "Monotype Design Team";
designerURL = "http://www.monotype.com/studio";
disablesAutomaticAlignment = 1;
familyName = "Noto Sans Old North Arabian";
fontMaster = (
{
alignmentZones = (
"{690, 15}",
"{665, 15}",
"{536, 15}",
"{0, -15}",
"{-293, -15}"
);
ascender = 690;
capHeight = 665;
customParameters = (
{
name = typoAscender;
value = 1069;
},
{
name = typoDescender;
value = -293;
},
{
name = typoLineGap;
value = 0;
},
{
name = winAscent;
value = 1069;
},
{
name = winDescent;
value = 293;
},
{
name = hheaAscender;
value = 1069;
},
{
name = hheaDescender;
value = -293;
},
{
name = hheaLineGap;
value = 0;
},
{
name = underlinePosition;
value = -100;
},
{
name = underlineThickness;

glyphs = (
{
glyphname = .notdef;
lastChange = "2018-02-13 15:43:40 +0000";
layers = (
{
layerId = UUID0;
paths = (
{
closed = 1;
nodes = (
"505 0 LINE",
"505 714 LINE",
"94 714 LINE",
"94 0 LINE"
);
},
{
closed = 1;
nodes = (
"145 663 LINE",
"454 663 LINE",
"454 51 LINE",
"145 51 LINE"
);
}
);
width = 600;
}
);
},
{
glyphname = u10A9A;
lastChange = "2018-02-13 15:43:43 +0000";
layers = (
{
layerId = UUID0;
paths = (
{
closed = 1;
nodes = (
"257 -15 OFFCURVE",
"262 0 OFFCURVE",
"262 36 CURVE SMOOTH",
"262 376 LINE",
"328 394 OFFCURVE",
"377 453 OFFCURVE",
"377 531 CURVE SMOOTH",
"377 623 OFFCURVE",
"305 690 OFFCURVE",
"217 690 CURVE SMOOTH",
"130 690 OFFCURVE",
"60 623 OFFCURVE",
"60 531 CURVE SMOOTH",
"60 452 OFFCURVE",
"108 393 OFFCURVE",
"174 376 CURVE",
"174 36 LINE SMOOTH",
"174 0 OFFCURVE",
"180 -15 OFFCURVE",
"219 -15 CURVE SMOOTH"
);
},
{
closed = 1;
nodes = (
"174 450 OFFCURVE",
"142 484 OFFCURVE",
"142 530 CURVE SMOOTH",
"142 576 OFFCURVE",
"174 610 OFFCURVE",
"217 610 CURVE SMOOTH",
"262 610 OFFCURVE",
"295 576 OFFCURVE",
"295 530 CURVE SMOOTH",
"295 484 OFFCURVE",
"262 450 OFFCURVE",
"217 450 CURVE SMOOTH"
);
}
);
width = 437;
}
);
unicode = 10A9A;
},
{
glyphname = u10A9B;
lastChange = "2018-02-13 15:43:43 +0000";
layers = (
{
layerId = UUID0;
paths = (
{
closed = 1;
nodes = (
"311 -15 OFFCURVE",
"316 0 OFFCURVE",
"316 36 CURVE SMOOTH",
"316 248 LINE",
"382 267 OFFCURVE",
"430 325 OFFCURVE",
"430 403 CURVE SMOOTH",
"430 442 OFFCURVE",
"417 477 OFFCURVE",
"395 504 CURVE",
"483 615 LINE SMOOTH",
"493 628 OFFCURVE",
"499 638 OFFCURVE",
"499 648 CURVE SMOOTH",
"499 657 OFFCURVE",
"493 666 OFFCURVE",
"480 677 CURVE SMOOTH",
"469 686 OFFCURVE",
"460 690 OFFCURVE",
"452 690 CURVE SMOOTH",
"440 690 OFFCURVE",
"430 681 OFFCURVE",
"417 665 CURVE SMOOTH",
"328 552 LINE",
"310 558 OFFCURVE",
"290 562 OFFCURVE",
"270 562 CURVE SMOOTH",
"249 562 OFFCURVE",
"229 558 OFFCURVE",
"211 551 CURVE",
"122 665 LINE SMOOTH",
"109 681 OFFCURVE",
"99 690 OFFCURVE",
"87 690 CURVE SMOOTH",
"79 690 OFFCURVE",
"70 686 OFFCURVE",
"59 677 CURVE SMOOTH",
"46 666 OFFCURVE",
"40 657 OFFCURVE",
"40 648 CURVE SMOOTH",
"40 638 OFFCURVE",
"46 628 OFFCURVE",
"56 615 CURVE SMOOTH",
"146 502 LINE",
"125 475 OFFCURVE",
"113 441 OFFCURVE",
"113 403 CURVE SMOOTH",
"113 324 OFFCURVE",
"162 265 OFFCURVE",
"228 247 CURVE",
"228 36 LINE SMOOTH",
"228 0 OFFCURVE",
"234 -15 OFFCURVE",
"273 -15 CURVE SMOOTH"
);
},
{
closed = 1;
nodes = (
"227 322 OFFCURVE",
"195 356 OFFCURVE",
"195 402 CURVE SMOOTH",
"195 448 OFFCURVE",
"227 482 OFFCURVE",
"270 482 CURVE SMOOTH",
"315 482 OFFCURVE",
"348 448 OFFCURVE",
"348 402 CURVE SMOOTH",
"348 356 OFFCURVE",
"315 322 OFFCURVE",
"270 322 CURVE SMOOTH"
);
}
);
width = 539;
}
);
unicode = 10A9B;
},
{
glyphname = u10A9C;
lastChange = "2018-02-13 15:43:43 +0000";
layers = (
{
layerId = UUID0;
paths = (
{
closed = 1;
nodes = (
"180 -15 OFFCURVE",
"190 -6 OFFCURVE",
"203 10 CURVE SMOOTH",
"265 86 OFFCURVE",
"326 163 OFFCURVE",
"374 241 CURVE",
"434 232 OFFCURVE",
"468 182 OFFCURVE",
"468 93 CURVE SMOOTH",
"468 36 LINE SMOOTH",
"468 0 OFFCURVE",
"474 -15 OFFCURVE",
"513 -15 CURVE SMOOTH",
"551 -15 OFFCURVE",
"556 0 OFFCURVE",
"556 36 CURVE SMOOTH",
"556 105 LINE SMOOTH",
"556 215 OFFCURVE",
"503 294 OFFCURVE",
"416 316 CURVE",
"451 385 OFFCURVE",
"472 454 OFFCURVE",
"472 520 CURVE SMOOTH",
"472 628 OFFCURVE",
"421 690 OFFCURVE",
"326 690 CURVE SMOOTH",
"261 690 OFFCURVE",
"214 662 OFFCURVE",
"167 582 CURVE SMOOTH",
"42 371 LINE SMOOTH",
"34 357 OFFCURVE",
"30 349 OFFCURVE",
"30 340 CURVE SMOOTH",
"30 324 OFFCURVE",
"40 315 OFFCURVE",
"54 308 CURVE SMOOTH",
"64 303 OFFCURVE",
"73 301 OFFCURVE",
"78 301 CURVE SMOOTH",
"96 301 OFFCURVE",
"104 315 OFFCURVE",
"112 329 CURVE SMOOTH",
"216 501 LINE SMOOTH",
"263 579 OFFCURVE",
"284 610 OFFCURVE",
"326 610 CURVE SMOOTH",
"363 610 OFFCURVE",
"384 586 OFFCURVE",
"384 520 CURVE SMOOTH",
"384 408 OFFCURVE",
"312 260 OFFCURVE",
"137 60 CURVE SMOOTH",
"126 47 OFFCURVE",
"121 37 OFFCURVE",
"121 27 CURVE SMOOTH",
"121 18 OFFCURVE",
"125 9 OFFCURVE",
"138 -2 CURVE SMOOTH",
"149 -11 OFFCURVE",
"157 -15 OFFCURVE",
"168 -15 CURVE SMOOTH"
);
}
);
width = 626;
}
);
unicode = 10A9C;
},
{
glyphname = u10A9D;
lastChange = "2018-02-13 15:43:40 +0000";
layers = (
{
layerId = UUID0;
paths = (
{
closed = 1;
nodes = (
"203 -15 OFFCURVE",
"208 0 OFFCURVE",
"208 36 CURVE SMOOTH",
"208 646 LINE SMOOTH",
"208 677 OFFCURVE",
"201 690 OFFCURVE",
"163 690 CURVE SMOOTH",
"125 690 OFFCURVE",
"120 675 OFFCURVE",
"120 646 CURVE SMOOTH",
"120 36 LINE SMOOTH",
"120 0 OFFCURVE",
"126 -15 OFFCURVE",
"165 -15 CURVE SMOOTH"
);
}
);
width = 328;
}
);
unicode = 10A9D;
},
{
glyphname = u10A98;
lastChange = "2018-02-13 15:43:43 +0000";
layers = (
{
layerId = UUID0;
paths = (
{
closed = 1;
nodes = (
"251 -15 OFFCURVE",
"262 -2 OFFCURVE",
"262 15 CURVE SMOOTH",
"262 22 OFFCURVE",
"261 30 OFFCURVE",
"258 42 CURVE SMOOTH",
"198 306 LINE",
"598 306 LINE",
"538 42 LINE SMOOTH",
"535 30 OFFCURVE",
"534 22 OFFCURVE",
"534 15 CURVE SMOOTH",
"534 -2 OFFCURVE",
"545 -15 OFFCURVE",
"572 -15 CURVE SMOOTH",
"611 -15 OFFCURVE",
"617 0 OFFCURVE",
"625 36 CURVE SMOOTH",
"763 646 LINE SMOOTH",
"765 654 OFFCURVE",
"766 661 OFFCURVE",
"766 667 CURVE SMOOTH",
"766 682 OFFCURVE",
"755 690 OFFCURVE",
"727 690 CURVE SMOOTH",
"689 690 OFFCURVE",
"682 677 OFFCURVE",
"675 646 CURVE SMOOTH",
"616 386 LINE",
"180 386 LINE",
"121 646 LINE SMOOTH",
"114 677 OFFCURVE",
"107 690 OFFCURVE",
"69 690 CURVE SMOOTH",
"41 690 OFFCURVE",
"30 682 OFFCURVE",
"30 667 CURVE SMOOTH",
"30 661 OFFCURVE",
"31 654 OFFCURVE",
"33 646 CURVE SMOOTH",
"171 36 LINE SMOOTH",
"179 0 OFFCURVE",
"185 -15 OFFCURVE",
"224 -15 CURVE SMOOTH"
);
}
);
width = 796;
}
);
leftMetricsKey = u10A88;
rightMetricsKey = u10A88;
unicode = 10A98;
},
{
glyphname = u10A99;
lastChange = "2018-02-13 15:43:43 +0000";
layers = (
{
layerId = UUID0;
paths = (
{
closed = 1;
nodes = (
"251 -15 OFFCURVE",
"262 -3 OFFCURVE",
"262 14 CURVE SMOOTH",
"262 21 OFFCURVE",
"261 29 OFFCURVE",
"258 41 CURVE SMOOTH",
"198 306 LINE",
"598 306 LINE",
"538 41 LINE SMOOTH",
"535 29 OFFCURVE",
"534 21 OFFCURVE",
"534 14 CURVE SMOOTH",
"534 -3 OFFCURVE",
"545 -15 OFFCURVE",
"572 -15 CURVE SMOOTH",
"611 -15 OFFCURVE",
"617 0 OFFCURVE",
"625 36 CURVE SMOOTH",
"763 646 LINE SMOOTH",
"765 654 OFFCURVE",
"766 661 OFFCURVE",
"766 667 CURVE SMOOTH",
"766 682 OFFCURVE",
"755 690 OFFCURVE",
"727 690 CURVE SMOOTH",
"689 690 OFFCURVE",
"682 677 OFFCURVE",
"675 646 CURVE SMOOTH",
"616 386 LINE",
"441 386 LINE",
"441 646 LINE SMOOTH",
"441 677 OFFCURVE",
"434 690 OFFCURVE",
"396 690 CURVE SMOOTH",
"358 690 OFFCURVE",
"353 675 OFFCURVE",
"353 646 CURVE SMOOTH",
"353 386 LINE",
"180 386 LINE",
"121 646 LINE SMOOTH",
"114 677 OFFCURVE",
"107 690 OFFCURVE",
"69 690 CURVE SMOOTH",
"41 690 OFFCURVE",
"30 682 OFFCURVE",
"30 667 CURVE SMOOTH",
"30 661 OFFCURVE",
"31 654 OFFCURVE",
"33 646 CURVE SMOOTH",
"171 36 LINE SMOOTH",
"179 0 OFFCURVE",
"185 -15 OFFCURVE",
"224 -15 CURVE SMOOTH"
);
}
);
width = 796;
}
);
leftMetricsKey = u10A88;
rightMetricsKey = u10A88;
unicode = 10A99;
},
{
glyphname = u10A96;
lastChange = "2018-02-13 15:43:43 +0000";
layers = (
{
layerId = UUID0;
paths = (
{
closed = 1;
nodes = (
"323 -15 OFFCURVE",
"328 0 OFFCURVE",
"328 36 CURVE SMOOTH",
"328 585 LINE",
"579 585 LINE",
"579 36 LINE SMOOTH",
"579 0 OFFCURVE",
"585 -15 OFFCURVE",
"624 -15 CURVE SMOOTH",
"662 -15 OFFCURVE",
"667 0 OFFCURVE",
"667 36 CURVE SMOOTH",
"667 644 LINE SMOOTH",
"667 657 OFFCURVE",
"656 665 OFFCURVE",
"643 665 CURVE SMOOTH",
"274 665 LINE SMOOTH",
"254 665 OFFCURVE",
"242 661 OFFCURVE",
"230 645 CURVE SMOOTH",
"47 410 LINE SMOOTH",
"37 397 OFFCURVE",
"30 386 OFFCURVE",
"30 376 CURVE SMOOTH",
"30 365 OFFCURVE",
"38 354 OFFCURVE",
"50 346 CURVE SMOOTH",
"60 339 OFFCURVE",
"68 335 OFFCURVE",
"78 335 CURVE SMOOTH",
"92 335 OFFCURVE",
"101 344 OFFCURVE",
"111 358 CURVE SMOOTH",
"240 526 LINE",
"240 36 LINE SMOOTH",
"240 0 OFFCURVE",
"246 -15 OFFCURVE",
"285 -15 CURVE SMOOTH"
);
}
);
width = 787;
}
);
rightMetricsKey = u10A9D;
unicode = 10A96;
},
{
glyphname = u10A97;
lastChange = "2018-02-13 15:44:39 +0000";
layers = (
{
layerId = UUID0;
paths = (
{
closed = 1;
nodes = (
"504 -15 OFFCURVE",
"512 -6 OFFCURVE",
"523 8 CURVE SMOOTH",
"646 165 OFFCURVE",
"673 205 OFFCURVE",
"673 266 CURVE SMOOTH",
"673 376 OFFCURVE",
"600 462 OFFCURVE",
"428 563 CURVE SMOOTH",
"316 629 OFFCURVE",
"201 665 OFFCURVE",
"127 682 CURVE SMOOTH",
"105 687 OFFCURVE",
"86 690 OFFCURVE",
"68 690 CURVE SMOOTH",
"50 690 OFFCURVE",
"40 680 OFFCURVE",
"40 655 CURVE SMOOTH",
"40 627 OFFCURVE",
"53 621 OFFCURVE",
"81 615 CURVE SMOOTH",
"119 607 OFFCURVE",
"157 598 OFFCURVE",
"196 584 CURVE",
"71 423 LINE SMOOTH",
"61 410 OFFCURVE",
"54 399 OFFCURVE",
"54 389 CURVE SMOOTH",
"54 378 OFFCURVE",
"62 367 OFFCURVE",
"74 359 CURVE SMOOTH",
"84 352 OFFCURVE",
"92 348 OFFCURVE",
"102 348 CURVE SMOOTH",
"116 348 OFFCURVE",
"127 361 OFFCURVE",
"135 371 CURVE SMOOTH",
"274 553 LINE",
"298 542 OFFCURVE",
"324 529 OFFCURVE",
"351 514 CURVE",
"200 317 LINE SMOOTH",
"190 304 OFFCURVE",
"183 293 OFFCURVE",
"183 283 CURVE SMOOTH",
"183 272 OFFCURVE",
"191 261 OFFCURVE",
"203 253 CURVE SMOOTH",
"213 246 OFFCURVE",
"221 242 OFFCURVE",
"231 242 CURVE SMOOTH",
"246 242 OFFCURVE",
"256 254 OFFCURVE",
"264 265 CURVE SMOOTH",
"421 472 LINE",
"422 471 OFFCURVE",
"424 470 OFFCURVE",
"426 469 CURVE SMOOTH",
"449 454 OFFCURVE",
"472 439 OFFCURVE",
"493 423 CURVE",
"332 213 LINE SMOOTH",
"322 200 OFFCURVE",
"315 189 OFFCURVE",
"315 179 CURVE SMOOTH",
"315 168 OFFCURVE",
"323 157 OFFCURVE",
"335 149 CURVE SMOOTH",
"345 142 OFFCURVE",
"353 138 OFFCURVE",
"363 138 CURVE SMOOTH",
"378 138 OFFCURVE",
"388 150 OFFCURVE",
"396 161 CURVE SMOOTH",
"551 366 LINE",
"572 339 OFFCURVE",
"585 307 OFFCURVE",
"585 270 CURVE SMOOTH",
"585 218 OFFCURVE",
"558 181 OFFCURVE",
"459 60 CURVE SMOOTH",
"449 47 OFFCURVE",
"442 36 OFFCURVE",
"442 26 CURVE SMOOTH",
"442 15 OFFCURVE",
"450 4 OFFCURVE",
"462 -4 CURVE SMOOTH",
"472 -11 OFFCURVE",
"480 -15 OFFCURVE",
"490 -15 CURVE SMOOTH"
);
}
);
width = 733;
}
);
unicode = 10A97;
},
{
glyphname = u10A9E;
lastChange = "2018-02-13 15:43:40 +0000";
layers = (
{
layerId = UUID0;
paths = (
{
closed = 1;
nodes = (
"271 160 OFFCURVE",
"282 170 OFFCURVE",
"305 193 CURVE SMOOTH",
"407 294 LINE SMOOTH",
"430 317 OFFCURVE",
"444 333 OFFCURVE",
"444 354 CURVE SMOOTH",
"444 375 OFFCURVE",
"432 388 OFFCURVE",
"408 412 CURVE SMOOTH",
"298 519 LINE SMOOTH",
"276 540 OFFCURVE",
"267 547 OFFCURVE",
"252 547 CURVE SMOOTH",
"237 547 OFFCURVE",
"227 540 OFFCURVE",
"205 519 CURVE SMOOTH",
"96 412 LINE SMOOTH",
"72 388 OFFCURVE",
"60 375 OFFCURVE",
"60 354 CURVE SMOOTH",
"60 332 OFFCURVE",
"73 317 OFFCURVE",
"96 294 CURVE SMOOTH",
"199 193 LINE SMOOTH",
"221 171 OFFCURVE",
"234 160 OFFCURVE",
"252 160 CURVE SMOOTH"
);
},
{
closed = 1;
nodes = (
"145 354 LINE",
"252 457 LINE",
"357 354 LINE",
"252 247 LINE"
);
}
);
width = 504;
}
);
unicode = 10A9E;
},
{
glyphname = u10A9F;
lastChange = "2018-02-13 15:43:43 +0000";
layers = (
{
layerId = UUID0;
paths = (
{
closed = 1;
nodes = (
"271 -11 OFFCURVE",
"282 -1 OFFCURVE",
"305 22 CURVE SMOOTH",
"407 123 LINE SMOOTH",
"430 146 OFFCURVE",
"444 162 OFFCURVE",
"444 183 CURVE SMOOTH",
"444 204 OFFCURVE",
"432 217 OFFCURVE",
"408 241 CURVE SMOOTH",
"310 337 LINE",
"407 433 LINE SMOOTH",
"430 456 OFFCURVE",
"444 472 OFFCURVE",
"444 493 CURVE SMOOTH",
"444 514 OFFCURVE",
"432 527 OFFCURVE",
"408 551 CURVE SMOOTH",
"298 658 LINE SMOOTH",
"276 679 OFFCURVE",
"267 686 OFFCURVE",
"252 686 CURVE SMOOTH",
"237 686 OFFCURVE",
"227 679 OFFCURVE",
"205 658 CURVE SMOOTH",
"96 551 LINE SMOOTH",
"72 527 OFFCURVE",
"60 514 OFFCURVE",
"60 493 CURVE SMOOTH",
"60 471 OFFCURVE",
"73 456 OFFCURVE",
"96 433 CURVE SMOOTH",
"194 337 LINE",
"96 241 LINE SMOOTH",
"72 217 OFFCURVE",
"60 204 OFFCURVE",
"60 183 CURVE SMOOTH",
"60 161 OFFCURVE",
"73 146 OFFCURVE",
"96 123 CURVE SMOOTH",
"199 22 LINE SMOOTH",
"221 0 OFFCURVE",
"234 -11 OFFCURVE",
"252 -11 CURVE SMOOTH"
);
},
{
closed = 1;
nodes = (
"145 183 LINE",
"252 286 LINE",
"357 183 LINE",
"252 76 LINE"
);
},
{
closed = 1;
nodes = (
"145 493 LINE",
"252 596 LINE",
"357 493 LINE",
"252 386 LINE"
);
}
);
width = 504;
}
);
leftMetricsKey = u10A9E;
rightMetricsKey = u10A9E;
unicode = 10A9F;
},
{
glyphname = u10A80;
lastChange = "2018-02-13 15:43:43 +0000";
layers = (
{
layerId = UUID0;
paths = (
{
closed = 1;
nodes = (
"541 -15 OFFCURVE",
"546 0 OFFCURVE",
"546 36 CURVE SMOOTH",
"546 276 LINE SMOOTH",
"546 335 OFFCURVE",
"534 413 OFFCURVE",
"445 468 CURVE SMOOTH",
"104 678 LINE SMOOTH",
"91 686 OFFCURVE",
"80 690 OFFCURVE",
"71 690 CURVE SMOOTH",
"59 690 OFFCURVE",
"50 685 OFFCURVE",
"39 668 CURVE SMOOTH",
"33 659 OFFCURVE",
"30 650 OFFCURVE",
"30 643 CURVE SMOOTH",
"30 630 OFFCURVE",
"40 618 OFFCURVE",
"60 606 CURVE SMOOTH",
"221 505 LINE",
"143 307 LINE SMOOTH",
"138 295 OFFCURVE",
"135 287 OFFCURVE",
"135 278 CURVE SMOOTH",
"135 258 OFFCURVE",
"164 244 OFFCURVE",
"185 244 CURVE SMOOTH",
"206 244 OFFCURVE",
"212 256 OFFCURVE",
"219 274 CURVE SMOOTH",
"291 460 LINE",
"397 394 LINE SMOOTH",
"435 370 OFFCURVE",
"458 336 OFFCURVE",
"458 267 CURVE SMOOTH",
"458 36 LINE SMOOTH",
"458 0 OFFCURVE",
"464 -15 OFFCURVE",
"503 -15 CURVE SMOOTH"
);
}
);
width = 626;
}
);
unicode = 10A80;
},
{
glyphname = u10A81;
lastChange = "2018-02-13 15:43:40 +0000";
layers = (
{
layerId = UUID0;
paths = (
{
closed = 1;
nodes = (
"97 -15 OFFCURVE",
"104 -2 OFFCURVE",
"113 18 CURVE SMOOTH",
"289 417 LINE SMOOTH",
"336 523 OFFCURVE",
"376 610 OFFCURVE",
"440 610 CURVE SMOOTH",
"481 610 OFFCURVE",
"504 586 OFFCURVE",
"504 520 CURVE SMOOTH",
"504 474 OFFCURVE",
"490 409 OFFCURVE",
"475 359 CURVE SMOOTH",
"465 326 OFFCURVE",
"458 301 OFFCURVE",
"458 287 CURVE SMOOTH",
"458 266 OFFCURVE",
"475 256 OFFCURVE",
"501 256 CURVE SMOOTH",
"525 256 OFFCURVE",
"536 264 OFFCURVE",
"544 284 CURVE SMOOTH",
"574 363 OFFCURVE",
"590 487 OFFCURVE",
"590 520 CURVE SMOOTH",
"590 628 OFFCURVE",
"542 690 OFFCURVE",
"441 690 CURVE SMOOTH",
"334 690 OFFCURVE",
"282 604 OFFCURVE",
"211 446 CURVE SMOOTH",
"35 54 LINE SMOOTH",
"29 40 OFFCURVE",
"25 30 OFFCURVE",
"25 23 CURVE SMOOTH",
"25 7 OFFCURVE",
"36 -2 OFFCURVE",
"52 -9 CURVE SMOOTH",
"62 -13 OFFCURVE",
"71 -15 OFFCURVE",
"81 -15 CURVE SMOOTH"
);
}
);
width = 630;
}
);
unicode = 10A81;
},
{
glyphname = u10A82;
lastChange = "2018-02-13 15:43:43 +0000";
layers = (
{
layerId = UUID0;
paths = (
{
closed = 1;
nodes = (
"436 -15 OFFCURVE",
"441 0 OFFCURVE",
"441 36 CURVE SMOOTH",
"441 207 OFFCURVE",
"439 380 OFFCURVE",
"436 551 CURVE",
"677 19 LINE SMOOTH",
"685 2 OFFCURVE",
"694 -7 OFFCURVE",
"711 -7 CURVE SMOOTH",
"723 -7 OFFCURVE",
"730 -5 OFFCURVE",
"738 -2 CURVE SMOOTH",
"754 4 OFFCURVE",
"763 14 OFFCURVE",
"763 28 CURVE SMOOTH",
"763 38 OFFCURVE",
"759 48 OFFCURVE",
"756 54 CURVE SMOOTH",
"469 645 LINE SMOOTH",
"450 685 OFFCURVE",
"429 695 OFFCURVE",
"398 695 CURVE SMOOTH",
"367 695 OFFCURVE",
"346 685 OFFCURVE",
"326 645 CURVE SMOOTH",
"37 54 LINE SMOOTH",
"34 48 OFFCURVE",
"30 38 OFFCURVE",
"30 28 CURVE SMOOTH",
"30 14 OFFCURVE",
"39 4 OFFCURVE",
"55 -2 CURVE SMOOTH",
"63 -5 OFFCURVE",
"70 -7 OFFCURVE",
"82 -7 CURVE SMOOTH",
"99 -7 OFFCURVE",
"108 2 OFFCURVE",
"116 19 CURVE SMOOTH",
"357 550 LINE",
"354 379 OFFCURVE",
"353 207 OFFCURVE",
"353 36 CURVE SMOOTH",
"353 0 OFFCURVE",
"359 -15 OFFCURVE",
"398 -15 CURVE SMOOTH"
);
}
);
width = 793;
}
);
leftMetricsKey = u10A88;
rightMetricsKey = u10A88;
unicode = 10A82;
},
{
glyphname = u10A83;
lastChange = "2018-02-13 15:43:40 +0000";
layers = (
{
layerId = UUID0;
paths = (
{
closed = 1;
nodes = (
"112 -15 OFFCURVE",
"123 0 OFFCURVE",
"140 25 CURVE SMOOTH",
"202 117 OFFCURVE",
"239 339 OFFCURVE",
"247 437 CURVE SMOOTH",
"253 512 OFFCURVE",
"264 610 OFFCURVE",
"384 610 CURVE SMOOTH",
"482 610 OFFCURVE",
"508 535 OFFCURVE",
"508 460 CURVE SMOOTH",
"508 284 OFFCURVE",
"394 87 OFFCURVE",
"374 54 CURVE SMOOTH",
"367 42 OFFCURVE",
"363 33 OFFCURVE",
"363 22 CURVE SMOOTH",
"363 -1 OFFCURVE",
"387 -15 OFFCURVE",
"413 -15 CURVE SMOOTH",
"437 -15 OFFCURVE",
"449 1 OFFCURVE",
"463 24 CURVE SMOOTH",
"526 128 OFFCURVE",
"596 320 OFFCURVE",
"596 469 CURVE SMOOTH",
"596 621 OFFCURVE",
"500 690 OFFCURVE",
"377 690 CURVE SMOOTH",
"191 690 OFFCURVE",
"171 554 OFFCURVE",
"161 447 CURVE SMOOTH",
"150 325 OFFCURVE",
"131 179 OFFCURVE",
"66 80 CURVE SMOOTH",
"51 58 OFFCURVE",
"40 38 OFFCURVE",
"40 26 CURVE SMOOTH",
"40 3 OFFCURVE",
"60 -15 OFFCURVE",
"87 -15 CURVE SMOOTH"
);
}
);
width = 656;
}
);
unicode = 10A83;
},
{
glyphname = u10A84;
lastChange = "2018-02-13 15:43:43 +0000";
layers = (
{
layerId = UUID0;
paths = (
{
closed = 1;
nodes = (
"280 -15 OFFCURVE",
"285 0 OFFCURVE",
"285 36 CURVE SMOOTH",
"285 237 LINE",
"362 256 OFFCURVE",
"419 325 OFFCURVE",
"419 411 CURVE SMOOTH",
"419 461 OFFCURVE",
"400 505 OFFCURVE",
"369 537 CURVE",
"440 629 LINE SMOOTH",
"446 637 OFFCURVE",
"447 645 OFFCURVE",
"447 652 CURVE SMOOTH",
"447 676 OFFCURVE",
"423 690 OFFCURVE",
"402 690 CURVE SMOOTH",
"392 690 OFFCURVE",
"384 687 OFFCURVE",
"378 679 CURVE SMOOTH",
"301 580 LINE",
"282 587 OFFCURVE",
"261 591 OFFCURVE",
"239 591 CURVE SMOOTH",
"140 591 OFFCURVE",
"60 514 OFFCURVE",
"60 411 CURVE SMOOTH",
"60 323 OFFCURVE",
"118 254 OFFCURVE",
"197 236 CURVE",
"197 36 LINE SMOOTH",
"197 0 OFFCURVE",
"203 -15 OFFCURVE",
"242 -15 CURVE SMOOTH"
);
},
{
closed = 1;
nodes = (
"185 311 OFFCURVE",
"143 350 OFFCURVE",
"143 411 CURVE SMOOTH",
"143 472 OFFCURVE",
"185 511 OFFCURVE",
"239 511 CURVE SMOOTH",
"292 511 OFFCURVE",
"335 472 OFFCURVE",
"335 411 CURVE SMOOTH",
"335 350 OFFCURVE",
"292 311 OFFCURVE",
"239 311 CURVE SMOOTH"
);
}
);
width = 487;
}
);
unicode = 10A84;
},
{
glyphname = u10A85;
lastChange = "2018-02-13 15:43:43 +0000";
layers = (
{
layerId = UUID0;
paths = (
{
closed = 1;
nodes = (
"602 -15 OFFCURVE",
"745 140 OFFCURVE",
"745 332 CURVE SMOOTH",
"745 524 OFFCURVE",
"596 680 OFFCURVE",
"397 680 CURVE SMOOTH",
"197 680 OFFCURVE",
"50 524 OFFCURVE",
"50 332 CURVE SMOOTH",
"50 140 OFFCURVE",
"197 -15 OFFCURVE",
"397 -15 CURVE SMOOTH"
);
},
{
closed = 1;
nodes = (
"225 87 OFFCURVE",
"138 193 OFFCURVE",
"138 332 CURVE SMOOTH",
"138 461 OFFCURVE",
"222 576 OFFCURVE",
"356 596 CURVE",
"356 67 LINE"
);
},
{
closed = 1;
nodes = (
"439 596 LINE",
"573 577 OFFCURVE",
"657 462 OFFCURVE",
"657 332 CURVE SMOOTH",
"657 194 OFFCURVE",
"566 85 OFFCURVE",
"439 67 CURVE"
);
}
);
width = 795;
}
);
unicode = 10A85;
},
{
glyphname = u10A86;
lastChange = "2018-02-13 15:43:40 +0000";
layers = (
{
layerId = UUID0;
paths = (
{
closed = 1;
nodes = (
"115 -15 OFFCURVE",
"130 -6 OFFCURVE",
"133 -4 CURVE",
"332 115 LINE SMOOTH",
"355 129 OFFCURVE",
"369 141 OFFCURVE",
"369 172 CURVE SMOOTH",
"369 206 OFFCURVE",
"354 217 OFFCURVE",
"332 230 CURVE SMOOTH",
"155 339 LINE",
"333 453 LINE SMOOTH",
"354 467 OFFCURVE",
"373 480 OFFCURVE",
"373 511 CURVE SMOOTH",
"373 546 OFFCURVE",
"351 560 OFFCURVE",
"333 570 CURVE SMOOTH",
"137 679 LINE SMOOTH",
"130 683 OFFCURVE",
"117 690 OFFCURVE",
"103 690 CURVE SMOOTH",
"80 690 OFFCURVE",
"63 669 OFFCURVE",
"63 646 CURVE SMOOTH",
"63 622 OFFCURVE",
"80 612 OFFCURVE",
"92 606 CURVE SMOOTH",
"280 510 LINE",
"92 390 LINE SMOOTH",
"74 379 OFFCURVE",
"60 365 OFFCURVE",
"60 338 CURVE SMOOTH",
"60 309 OFFCURVE",
"73 297 OFFCURVE",
"92 285 CURVE SMOOTH",
"276 173 LINE",
"84 64 LINE SMOOTH",
"69 55 OFFCURVE",
"61 43 OFFCURVE",
"61 28 CURVE SMOOTH",
"61 8 OFFCURVE",
"77 -15 OFFCURVE",
"100 -15 CURVE SMOOTH"
);
}
);
width = 433;
}
);
leftMetricsKey = u10A9E;
rightMetricsKey = u10A9E;
unicode = 10A86;
},
{
glyphname = u10A87;
lastChange = "2018-02-13 15:43:40 +0000";
layers = (
{
layerId = UUID0;
paths = (
{
closed = 1;
nodes = (
"282 -15 OFFCURVE",
"425 140 OFFCURVE",
"425 343 CURVE SMOOTH",
"425 554 OFFCURVE",
"282 690 OFFCURVE",
"93 690 CURVE SMOOTH",
"66 690 OFFCURVE",
"50 675 OFFCURVE",
"50 652 CURVE SMOOTH",
"50 629 OFFCURVE",
"63 615 OFFCURVE",
"91 612 CURVE SMOOTH",
"238 597 OFFCURVE",
"337 516 OFFCURVE",
"337 341 CURVE SMOOTH",
"337 191 OFFCURVE",
"233 83 OFFCURVE",
"98 67 CURVE SMOOTH",
"63 63 OFFCURVE",
"50 49 OFFCURVE",
"50 24 CURVE SMOOTH",
"50 0 OFFCURVE",
"63 -15 OFFCURVE",
"100 -15 CURVE SMOOTH"
);
}
);
width = 475;
}
);
rightMetricsKey = u10A85;
unicode = 10A87;
},
{
glyphname = u10A88;
lastChange = "2018-02-13 15:43:40 +0000";
layers = (
{
layerId = UUID0;
paths = (
{
closed = 1;
nodes = (
"246 -15 OFFCURVE",
"257 -3 OFFCURVE",
"257 14 CURVE SMOOTH",
"257 21 OFFCURVE",
"256 29 OFFCURVE",
"253 41 CURVE SMOOTH",
"130 585 LINE",
"608 585 LINE",
"485 41 LINE SMOOTH",
"482 29 OFFCURVE",
"481 21 OFFCURVE",
"481 14 CURVE SMOOTH",
"481 -3 OFFCURVE",
"492 -15 OFFCURVE",
"519 -15 CURVE SMOOTH",
"558 -15 OFFCURVE",
"564 0 OFFCURVE",
"572 36 CURVE SMOOTH",
"695 596 LINE SMOOTH",
"698 609 OFFCURVE",
"703 631 OFFCURVE",
"703 640 CURVE SMOOTH",
"703 662 OFFCURVE",
"685 665 OFFCURVE",
"664 665 CURVE SMOOTH",
"70 665 LINE SMOOTH",
"49 665 OFFCURVE",
"30 662 OFFCURVE",
"30 637 CURVE SMOOTH",
"30 633 OFFCURVE",
"33 616 OFFCURVE",
"39 590 CURVE SMOOTH",
"166 36 LINE SMOOTH",
"174 0 OFFCURVE",
"180 -15 OFFCURVE",
"219 -15 CURVE SMOOTH"
);
}
);
width = 733;
}
);
unicode = 10A88;
},
{
glyphname = u10A89;
lastChange = "2018-02-13 15:43:43 +0000";
layers = (
{
layerId = UUID0;
paths = (
{
closed = 1;
nodes = (
"122 -13 OFFCURVE",
"131 -4 OFFCURVE",
"141 10 CURVE SMOOTH",
"336 270 LINE",
"530 10 LINE SMOOTH",
"540 -4 OFFCURVE",
"549 -13 OFFCURVE",
"563 -13 CURVE SMOOTH",
"573 -13 OFFCURVE",
"581 -9 OFFCURVE",
"591 -2 CURVE SMOOTH",
"603 6 OFFCURVE",
"611 17 OFFCURVE",
"611 28 CURVE SMOOTH",
"611 38 OFFCURVE",
"604 49 OFFCURVE",
"594 62 CURVE SMOOTH",
"387 339 LINE",
"594 615 LINE SMOOTH",
"604 628 OFFCURVE",
"611 639 OFFCURVE",
"611 649 CURVE SMOOTH",
"611 660 OFFCURVE",
"603 671 OFFCURVE",
"591 679 CURVE SMOOTH",
"581 686 OFFCURVE",
"573 690 OFFCURVE",
"563 690 CURVE SMOOTH",
"549 690 OFFCURVE",
"540 681 OFFCURVE",
"530 667 CURVE SMOOTH",
"336 407 LINE",
"141 667 LINE SMOOTH",
"131 681 OFFCURVE",
"122 690 OFFCURVE",
"108 690 CURVE SMOOTH",
"98 690 OFFCURVE",
"90 686 OFFCURVE",
"80 679 CURVE SMOOTH",
"68 671 OFFCURVE",
"60 660 OFFCURVE",
"60 649 CURVE SMOOTH",
"60 639 OFFCURVE",
"67 628 OFFCURVE",
"77 615 CURVE SMOOTH",
"284 339 LINE",
"77 62 LINE SMOOTH",
"67 49 OFFCURVE",
"60 38 OFFCURVE",
"60 28 CURVE SMOOTH",
"60 17 OFFCURVE",
"68 6 OFFCURVE",
"80 -2 CURVE SMOOTH",
"90 -9 OFFCURVE",
"98 -13 OFFCURVE",
"108 -13 CURVE SMOOTH"
);
}
);
width = 671;
}
);
unicode = 10A89;
},
{
glyphname = u10A8A;
lastChange = "2018-02-13 15:43:43 +0000";
layers = (
{
layerId = UUID0;
paths = (
{
closed = 1;
nodes = (
"226 -15 OFFCURVE",
"237 -3 OFFCURVE",
"237 14 CURVE SMOOTH",
"237 21 OFFCURVE",
"236 29 OFFCURVE",
"233 41 CURVE SMOOTH",
"136 467 LINE",
"568 467 LINE",
"472 41 LINE SMOOTH",
"469 29 OFFCURVE",
"468 21 OFFCURVE",
"468 14 CURVE SMOOTH",
"468 -3 OFFCURVE",
"479 -15 OFFCURVE",
"509 -15 CURVE SMOOTH",
"545 -15 OFFCURVE",
"551 0 OFFCURVE",
"559 36 CURVE SMOOTH",
"657 474 LINE SMOOTH",
"661 490 OFFCURVE",
"664 505 OFFCURVE",
"664 519 CURVE SMOOTH",
"664 544 OFFCURVE",
"645 547 OFFCURVE",
"624 547 CURVE SMOOTH",
"395 547 LINE",
"395 639 LINE SMOOTH",
"395 675 OFFCURVE",
"390 690 OFFCURVE",
"354 690 CURVE SMOOTH",
"317 690 OFFCURVE",
"311 675 OFFCURVE",
"311 639 CURVE SMOOTH",
"311 547 LINE",
"80 547 LINE SMOOTH",
"55 547 OFFCURVE",
"40 539 OFFCURVE",
"40 516 CURVE SMOOTH",
"40 503 OFFCURVE",
"43 488 OFFCURVE",
"46 474 CURVE SMOOTH",
"146 36 LINE SMOOTH",
"154 0 OFFCURVE",
"160 -15 OFFCURVE",
"195 -15 CURVE SMOOTH"
);
}
);
width = 704;
}
);
leftMetricsKey = u10A91;
rightMetricsKey = u10A91;
unicode = 10A8A;
},
{
glyphname = u10A8B;
lastChange = "2018-02-13 15:43:40 +0000";
layers = (
{
layerId = UUID0;
paths = (
{
closed = 1;
nodes = (
"226 -15 OFFCURVE",
"237 -3 OFFCURVE",
"237 14 CURVE SMOOTH",
"237 21 OFFCURVE",
"236 29 OFFCURVE",
"233 41 CURVE SMOOTH",
"136 467 LINE",
"568 467 LINE",
"472 41 LINE SMOOTH",
"469 29 OFFCURVE",
"468 21 OFFCURVE",
"468 14 CURVE SMOOTH",
"468 -3 OFFCURVE",
"479 -15 OFFCURVE",
"512 -15 CURVE SMOOTH",
"545 -15 OFFCURVE",
"551 0 OFFCURVE",
"559 36 CURVE SMOOTH",
"657 474 LINE SMOOTH",
"661 490 OFFCURVE",
"664 505 OFFCURVE",
"664 519 CURVE SMOOTH",
"664 544 OFFCURVE",
"645 547 OFFCURVE",
"624 547 CURVE SMOOTH",
"158 547 LINE",
"225 626 LINE SMOOTH",
"233 636 OFFCURVE",
"235 644 OFFCURVE",
"235 651 CURVE SMOOTH",
"235 667 OFFCURVE",
"214 690 OFFCURVE",
"190 690 CURVE SMOOTH",
"177 690 OFFCURVE",
"170 685 OFFCURVE",
"163 677 CURVE SMOOTH",
"51 545 LINE",
"44 536 OFFCURVE",
"40 527 OFFCURVE",
"40 516 CURVE SMOOTH",
"40 503 OFFCURVE",
"43 488 OFFCURVE",
"46 474 CURVE SMOOTH",
"146 36 LINE SMOOTH",
"154 0 OFFCURVE",
"160 -15 OFFCURVE",
"196 -15 CURVE SMOOTH"
);
}
);
width = 704;
}
);
leftMetricsKey = u10A91;
rightMetricsKey = u10A91;
unicode = 10A8B;
},
{
glyphname = u10A8C;
lastChange = "2018-02-13 15:43:40 +0000";
layers = (
{
layerId = UUID0;
paths = (
{
closed = 1;
nodes = (
"353 -15 OFFCURVE",
"360 -6 OFFCURVE",
"370 11 CURVE SMOOTH",
"375 20 OFFCURVE",
"377 27 OFFCURVE",
"377 37 CURVE SMOOTH",
"377 50 OFFCURVE",
"366 60 OFFCURVE",
"346 72 CURVE SMOOTH",
"180 169 LINE",
"344 476 LINE SMOOTH",
"358 502 OFFCURVE",
"363 516 OFFCURVE",
"363 531 CURVE SMOOTH",
"363 547 OFFCURVE",
"354 557 OFFCURVE",
"338 566 CURVE SMOOTH",
"133 679 LINE SMOOTH",
"120 686 OFFCURVE",
"109 690 OFFCURVE",
"100 690 CURVE SMOOTH",
"88 690 OFFCURVE",
"78 681 OFFCURVE",
"68 664 CURVE SMOOTH",
"63 655 OFFCURVE",
"60 647 OFFCURVE",
"60 639 CURVE SMOOTH",
"60 626 OFFCURVE",
"72 614 OFFCURVE",
"92 603 CURVE SMOOTH",
"263 510 LINE",
"97 199 LINE SMOOTH",
"83 173 OFFCURVE",
"78 159 OFFCURVE",
"78 144 CURVE SMOOTH",
"78 128 OFFCURVE",
"90 117 OFFCURVE",
"106 108 CURVE SMOOTH",
"305 -4 LINE SMOOTH",
"318 -11 OFFCURVE",
"326 -15 OFFCURVE",
"338 -15 CURVE SMOOTH"
);
}
);
width = 437;
}
);
leftMetricsKey = u10A9E;
rightMetricsKey = u10A9E;
unicode = 10A8C;
},
{
glyphname = u10A8D;
lastChange = "2018-02-13 15:43:43 +0000";
layers = (
{
layerId = UUID0;
paths = (
{
closed = 1;
nodes = (
"146 -15 OFFCURVE",
"155 -3 OFFCURVE",
"164 11 CURVE SMOOTH",
"354 311 LINE",
"478 11 LINE SMOOTH",
"485 -6 OFFCURVE",
"495 -15 OFFCURVE",
"516 -15 CURVE SMOOTH",
"524 -15 OFFCURVE",
"531 -13 OFFCURVE",
"539 -10 CURVE SMOOTH",
"555 -4 OFFCURVE",
"563 5 OFFCURVE",
"563 20 CURVE SMOOTH",
"563 27 OFFCURVE",
"561 37 OFFCURVE",
"557 46 CURVE SMOOTH",
"404 390 LINE",
"432 438 OFFCURVE",
"454 488 OFFCURVE",
"454 533 CURVE SMOOTH",
"454 632 OFFCURVE",
"374 680 OFFCURVE",
"250 680 CURVE SMOOTH",
"71 680 LINE SMOOTH",
"43 680 OFFCURVE",
"30 668 OFFCURVE",
"30 640 CURVE SMOOTH",
"30 611 OFFCURVE",
"43 600 OFFCURVE",
"71 600 CURVE SMOOTH",
"239 600 LINE SMOOTH",
"331 600 OFFCURVE",
"364 574 OFFCURVE",
"364 525 CURVE SMOOTH",
"364 479 OFFCURVE",
"327 417 OFFCURVE",
"290 360 CURVE SMOOTH",
"96 60 LINE SMOOTH",
"87 47 OFFCURVE",
"81 37 OFFCURVE",
"81 26 CURVE SMOOTH",
"81 13 OFFCURVE",
"91 2 OFFCURVE",
"104 -6 CURVE SMOOTH",
"114 -12 OFFCURVE",
"122 -15 OFFCURVE",
"132 -15 CURVE SMOOTH"
);
}
);
width = 593;
}
);
rightMetricsKey = u10A88;
unicode = 10A8D;
},
{
glyphname = u10A8E;
lastChange = "2018-02-13 15:43:43 +0000";
layers = (
{
layerId = UUID0;
paths = (
{
closed = 1;
nodes = (
"384 -15 OFFCURVE",
"389 0 OFFCURVE",
"389 36 CURVE SMOOTH",
"389 335 LINE",
"403 339 OFFCURVE",
"417 344 OFFCURVE",
"430 351 CURVE",
"576 16 LINE SMOOTH",
"583 -1 OFFCURVE",
"593 -10 OFFCURVE",
"614 -10 CURVE SMOOTH",
"622 -10 OFFCURVE",
"629 -8 OFFCURVE",
"637 -5 CURVE SMOOTH",
"653 1 OFFCURVE",
"661 10 OFFCURVE",
"661 25 CURVE SMOOTH",
"661 32 OFFCURVE",
"659 42 OFFCURVE",
"655 51 CURVE SMOOTH",
"496 411 LINE",
"514 439 OFFCURVE",
"524 473 OFFCURVE",
"524 510 CURVE SMOOTH",
"524 613 OFFCURVE",
"443 690 OFFCURVE",
"344 690 CURVE SMOOTH",
"245 690 OFFCURVE",
"165 613 OFFCURVE",
"165 510 CURVE SMOOTH",
"165 472 OFFCURVE",
"176 438 OFFCURVE",
"195 409 CURVE",
"36 51 LINE SMOOTH",
"32 42 OFFCURVE",
"30 32 OFFCURVE",
"30 25 CURVE SMOOTH",
"30 10 OFFCURVE",
"38 1 OFFCURVE",
"54 -5 CURVE SMOOTH",
"62 -8 OFFCURVE",
"69 -10 OFFCURVE",
"77 -10 CURVE SMOOTH",
"98 -10 OFFCURVE",
"108 -1 OFFCURVE",
"115 16 CURVE SMOOTH",
"261 350 LINE",
"273 343 OFFCURVE",
"287 338 OFFCURVE",
"301 335 CURVE",
"301 36 LINE SMOOTH",
"301 0 OFFCURVE",
"307 -15 OFFCURVE",
"346 -15 CURVE SMOOTH"
);
},
{
closed = 1;
nodes = (
"290 410 OFFCURVE",
"248 449 OFFCURVE",
"248 510 CURVE SMOOTH",
"248 571 OFFCURVE",
"290 610 OFFCURVE",
"344 610 CURVE SMOOTH",
"397 610 OFFCURVE",
"440 571 OFFCURVE",
"440 510 CURVE SMOOTH",
"440 449 OFFCURVE",
"397 410 OFFCURVE",
"344 410 CURVE SMOOTH"
);
}
);
width = 691;
}
);
leftMetricsKey = u10A88;
rightMetricsKey = u10A88;
unicode = 10A8E;
},
{
glyphname = u10A8F;
lastChange = "2018-02-13 15:43:43 +0000";
layers = (
{
layerId = UUID0;
paths = (
{
closed = 1;
nodes = (
"438 -15 OFFCURVE",
"443 0 OFFCURVE",
"443 36 CURVE SMOOTH",
"443 185 LINE",
"466 190 OFFCURVE",
"487 198 OFFCURVE",
"506 210 CURVE",
"584 126 LINE SMOOTH",
"598 111 OFFCURVE",
"608 104 OFFCURVE",
"619 104 CURVE SMOOTH",
"629 104 OFFCURVE",
"638 110 OFFCURVE",
"648 120 CURVE SMOOTH",
"660 132 OFFCURVE",
"664 141 OFFCURVE",
"664 150 CURVE SMOOTH",
"664 160 OFFCURVE",
"657 170 OFFCURVE",
"645 182 CURVE SMOOTH",
"567 265 LINE",
"585 289 OFFCURVE",
"598 317 OFFCURVE",
"604 348 CURVE",
"717 348 LINE SMOOTH",
"753 348 OFFCURVE",
"768 352 OFFCURVE",
"768 388 CURVE SMOOTH",
"768 423 OFFCURVE",
"753 429 OFFCURVE",
"717 429 CURVE SMOOTH",
"604 429 LINE",
"597 466 OFFCURVE",
"580 500 OFFCURVE",
"556 528 CURVE",
"636 612 LINE SMOOTH",
"647 624 OFFCURVE",
"655 634 OFFCURVE",
"655 644 CURVE SMOOTH",
"655 653 OFFCURVE",
"650 662 OFFCURVE",
"638 674 CURVE SMOOTH",
"628 684 OFFCURVE",
"616 690 OFFCURVE",
"608 690 CURVE SMOOTH",
"596 690 OFFCURVE",
"588 683 OFFCURVE",
"574 668 CURVE SMOOTH",
"490 578 LINE",
"462 591 OFFCURVE",
"431 599 OFFCURVE",
"398 599 CURVE SMOOTH",
"364 599 OFFCURVE",
"333 591 OFFCURVE",
"304 577 CURVE",
"220 668 LINE SMOOTH",
"206 683 OFFCURVE",
"197 690 OFFCURVE",
"185 690 CURVE SMOOTH",
"177 690 OFFCURVE",
"166 684 OFFCURVE",
"156 674 CURVE SMOOTH",
"144 662 OFFCURVE",
"140 653 OFFCURVE",
"140 644 CURVE SMOOTH",
"140 634 OFFCURVE",
"147 624 OFFCURVE",
"159 612 CURVE SMOOTH",
"240 526 LINE",
"217 499 OFFCURVE",
"200 466 OFFCURVE",
"193 430 CURVE",
"81 430 LINE SMOOTH",
"45 430 OFFCURVE",
"30 426 OFFCURVE",
"30 390 CURVE SMOOTH",
"30 355 OFFCURVE",
"45 349 OFFCURVE",
"81 349 CURVE SMOOTH",
"193 349 LINE",
"199 318 OFFCURVE",
"211 290 OFFCURVE",
"229 266 CURVE",
"149 181 LINE SMOOTH",
"137 169 OFFCURVE",
"130 159 OFFCURVE",
"130 149 CURVE SMOOTH",
"130 140 OFFCURVE",
"134 131 OFFCURVE",
"146 119 CURVE SMOOTH",
"156 109 OFFCURVE",
"167 103 OFFCURVE",
"176 103 CURVE SMOOTH",
"187 103 OFFCURVE",
"196 110 OFFCURVE",
"210 125 CURVE SMOOTH",
"289 210 LINE",
"309 198 OFFCURVE",
"331 189 OFFCURVE",
"355 184 CURVE",
"355 36 LINE SMOOTH",
"355 0 OFFCURVE",
"361 -15 OFFCURVE",
"400 -15 CURVE SMOOTH"
);
},
{
closed = 1;
nodes = (
"326 259 OFFCURVE",
"276 317 OFFCURVE",
"276 389 CURVE SMOOTH",
"276 460 OFFCURVE",
"326 519 OFFCURVE",
"398 519 CURVE SMOOTH",
"469 519 OFFCURVE",
"520 460 OFFCURVE",
"520 389 CURVE SMOOTH",
"520 317 OFFCURVE",
"469 259 OFFCURVE",
"398 259 CURVE SMOOTH"
);
}
);
width = 798;
}
);
unicode = 10A8F;
},
{
glyphname = u10A94;
lastChange = "2018-02-13 15:43:40 +0000";
layers = (
{
layerId = UUID0;
paths = (
{
closed = 1;
nodes = (
"387 -15 OFFCURVE",
"486 123 OFFCURVE",
"486 334 CURVE SMOOTH",
"486 543 OFFCURVE",
"392 690 OFFCURVE",
"224 690 CURVE SMOOTH",
"132 690 OFFCURVE",
"60 644 OFFCURVE",
"60 538 CURVE SMOOTH",
"60 476 OFFCURVE",
"82 438 OFFCURVE",
"107 402 CURVE SMOOTH",
"124 378 OFFCURVE",
"137 356 OFFCURVE",
"137 331 CURVE SMOOTH",
"137 309 OFFCURVE",
"123 281 OFFCURVE",
"106 253 CURVE SMOOTH",
"84 217 OFFCURVE",
"60 175 OFFCURVE",
"60 121 CURVE SMOOTH",
"60 23 OFFCURVE",
"139 -15 OFFCURVE",
"224 -15 CURVE SMOOTH"
);
},
{
closed = 1;
nodes = (
"175 68 OFFCURVE",
"148 91 OFFCURVE",
"148 132 CURVE SMOOTH",
"148 162 OFFCURVE",
"165 193 OFFCURVE",
"184 224 CURVE SMOOTH",
"204 256 OFFCURVE",
"225 291 OFFCURVE",
"225 329 CURVE SMOOTH",
"225 366 OFFCURVE",
"206 399 OFFCURVE",
"187 430 CURVE SMOOTH",
"168 462 OFFCURVE",
"148 497 OFFCURVE",
"148 536 CURVE SMOOTH",
"148 579 OFFCURVE",
"175 608 OFFCURVE",
"227 608 CURVE SMOOTH",
"347 608 OFFCURVE",
"398 484 OFFCURVE",
"398 341 CURVE SMOOTH",
"398 195 OFFCURVE",
"345 68 OFFCURVE",
"226 68 CURVE SMOOTH"
);
}
);
width = 536;
}
);
unicode = 10A94;
},
{
glyphname = u10A95;
lastChange = "2018-02-13 15:43:40 +0000";
layers = (
{
layerId = UUID0;
paths = (
{
closed = 1;
nodes = (
"349 -15 OFFCURVE",
"356 -12 OFFCURVE",
"365 -4 CURVE SMOOTH",
"525 133 LINE SMOOTH",
"571 173 OFFCURVE",
"615 232 OFFCURVE",
"615 338 CURVE SMOOTH",
"615 434 OFFCURVE",
"575 490 OFFCURVE",
"524 533 CURVE SMOOTH",
"365 669 LINE SMOOTH",
"356 677 OFFCURVE",
"346 680 OFFCURVE",
"338 680 CURVE SMOOTH",
"315 680 OFFCURVE",
"291 653 OFFCURVE",
"291 630 CURVE SMOOTH",
"291 617 OFFCURVE",
"297 611 OFFCURVE",
"313 598 CURVE SMOOTH",
"444 488 LINE SMOOTH",
"478 460 OFFCURVE",
"524 406 OFFCURVE",
"524 336 CURVE SMOOTH",
"524 265 OFFCURVE",
"491 216 OFFCURVE",
"444 177 CURVE SMOOTH",
"304 60 LINE SMOOTH",
"295 52 OFFCURVE",
"291 45 OFFCURVE",
"291 35 CURVE SMOOTH",
"291 12 OFFCURVE",
"315 -15 OFFCURVE",
"338 -15 CURVE SMOOTH"
);
},
{
closed = 1;
nodes = (
"158 420 LINE",
"295 327 LINE",
"158 233 LINE"
);
},
{
closed = 1;
nodes = (
"143 138 OFFCURVE",
"157 146 OFFCURVE",
"172 156 CURVE SMOOTH",
"357 283 LINE SMOOTH",
"376 296 OFFCURVE",
"385 309 OFFCURVE",
"385 330 CURVE SMOOTH",
"385 350 OFFCURVE",
"374 362 OFFCURVE",
"356 374 CURVE SMOOTH",
"172 498 LINE SMOOTH",
"157 508 OFFCURVE",
"143 516 OFFCURVE",
"123 516 CURVE SMOOTH",
"94 516 OFFCURVE",
"80 498 OFFCURVE",
"80 462 CURVE SMOOTH",
"80 184 LINE SMOOTH",
"80 151 OFFCURVE",
"96 138 OFFCURVE",
"123 138 CURVE SMOOTH"
);
}
);
width = 675;
}
);
unicode = 10A95;
},
{
glyphname = u10A90;
lastChange = "2018-02-13 15:58:17 +0000";
layers = (
{
layerId = UUID0;
paths = (
{
closed = 1;
nodes = (
"148 104 OFFCURVE",
"171 119 OFFCURVE",
"171 144 CURVE SMOOTH",
"171 151 OFFCURVE",
"169 157 OFFCURVE",
"164 165 CURVE SMOOTH",
"155 181 OFFCURVE",
"138 215 OFFCURVE",
"138 271 CURVE SMOOTH",
"138 451 OFFCURVE",
"251 530 OFFCURVE",
"397 530 CURVE SMOOTH",
"543 530 OFFCURVE",
"657 451 OFFCURVE",
"657 271 CURVE SMOOTH",
"657 222 OFFCURVE",
"643 187 OFFCURVE",
"632 167 CURVE SMOOTH",
"626 156 OFFCURVE",
"624 150 OFFCURVE",
"624 144 CURVE SMOOTH",
"624 121 OFFCURVE",
"650 104 OFFCURVE",
"670 104 CURVE SMOOTH",
"721 104 OFFCURVE",
"745 216 OFFCURVE",
"745 288 CURVE SMOOTH",
"745 480 OFFCURVE",
"596 610 OFFCURVE",
"398 610 CURVE SMOOTH",
"205 610 OFFCURVE",
"50 487 OFFCURVE",
"50 290 CURVE SMOOTH",
"50 219 OFFCURVE",
"73 104 OFFCURVE",
"128 104 CURVE SMOOTH"
);
}
);
width = 795;
}
);
leftMetricsKey = u10A85;
rightMetricsKey = u10A85;
unicode = 10A90;
},
{
glyphname = u10A91;
lastChange = "2018-02-13 15:43:43 +0000";
layers = (
{
layerId = UUID0;
paths = (
{
closed = 1;
nodes = (
"226 -15 OFFCURVE",
"237 -3 OFFCURVE",
"237 14 CURVE SMOOTH",
"237 21 OFFCURVE",
"236 29 OFFCURVE",
"233 41 CURVE SMOOTH",
"136 467 LINE",
"568 467 LINE",
"472 41 LINE SMOOTH",
"469 29 OFFCURVE",
"468 21 OFFCURVE",
"468 14 CURVE SMOOTH",
"468 -3 OFFCURVE",
"479 -15 OFFCURVE",
"506 -15 CURVE SMOOTH",
"545 -15 OFFCURVE",
"551 0 OFFCURVE",
"559 36 CURVE SMOOTH",
"657 474 LINE SMOOTH",
"661 490 OFFCURVE",
"664 505 OFFCURVE",
"664 519 CURVE SMOOTH",
"664 544 OFFCURVE",
"645 547 OFFCURVE",
"624 547 CURVE SMOOTH",
"512 547 LINE",
"512 639 LINE SMOOTH",
"512 675 OFFCURVE",
"507 690 OFFCURVE",
"473 690 CURVE SMOOTH",
"437 690 OFFCURVE",
"431 675 OFFCURVE",
"431 639 CURVE SMOOTH",
"431 547 LINE",
"272 547 LINE",
"272 639 LINE SMOOTH",
"272 675 OFFCURVE",
"267 690 OFFCURVE",
"232 690 CURVE SMOOTH",
"196 690 OFFCURVE",
"190 675 OFFCURVE",
"190 639 CURVE SMOOTH",
"190 547 LINE",
"80 547 LINE SMOOTH",
"55 547 OFFCURVE",
"40 539 OFFCURVE",
"40 516 CURVE SMOOTH",
"40 503 OFFCURVE",
"43 488 OFFCURVE",
"46 474 CURVE SMOOTH",
"146 36 LINE SMOOTH",
"154 0 OFFCURVE",
"160 -15 OFFCURVE",
"199 -15 CURVE SMOOTH"
);
}
);
width = 704;
}
);
unicode = 10A91;
},
{
glyphname = u10A92;
lastChange = "2018-02-13 15:43:40 +0000";
layers = (
{
layerId = UUID0;
paths = (
{
closed = 1;
nodes = (
"385 128 OFFCURVE",
"479 221 OFFCURVE",
"479 337 CURVE SMOOTH",
"479 453 OFFCURVE",
"385 547 OFFCURVE",
"269 547 CURVE SMOOTH",
"153 547 OFFCURVE",
"60 453 OFFCURVE",
"60 337 CURVE SMOOTH",
"60 221 OFFCURVE",
"153 128 OFFCURVE",
"269 128 CURVE SMOOTH"
);
},
{
closed = 1;
nodes = (
"197 207 OFFCURVE",
"147 265 OFFCURVE",
"147 337 CURVE SMOOTH",
"147 408 OFFCURVE",
"197 467 OFFCURVE",
"269 467 CURVE SMOOTH",
"340 467 OFFCURVE",
"391 408 OFFCURVE",
"391 337 CURVE SMOOTH",
"391 265 OFFCURVE",
"340 207 OFFCURVE",
"269 207 CURVE SMOOTH"
);
}
);
width = 539;
}
);
unicode = 10A92;
},
{
glyphname = u10A93;
lastChange = "2018-02-13 15:43:40 +0000";
layers = (
{
layerId = UUID0;
paths = (
{
closed = 1;
nodes = (
"644 0 LINE SMOOTH",
"660 0 OFFCURVE",
"668 8 OFFCURVE",
"668 28 CURVE SMOOTH",
"668 637 LINE SMOOTH",
"668 657 OFFCURVE",
"660 665 OFFCURVE",
"644 665 CURVE SMOOTH",
"148 665 LINE SMOOTH",
"130 665 OFFCURVE",
"120 660 OFFCURVE",
"120 637 CURVE SMOOTH",
"120 28 LINE SMOOTH",
"120 5 OFFCURVE",
"130 0 OFFCURVE",
"148 0 CURVE SMOOTH"
);
},
{
closed = 1;
nodes = (
"208 585 LINE",
"350 585 LINE",
"350 80 LINE",
"208 80 LINE"
);
},
{
closed = 1;
nodes = (
"438 585 LINE",
"580 585 LINE",
"580 80 LINE",
"438 80 LINE"
);
}
